<svg width="146" height="39" viewBox="0 0 146 39" fill="none" xmlns="http://www.w3.org/2000/svg">
<mask id="mask0_202_57" style="mask-type:luminance" maskUnits="userSpaceOnUse" x="0" y="0" width="39" height="39">
<path fill-rule="evenodd" clip-rule="evenodd" d="M0 0H38.4362V38.4347H0V0Z" fill="white"/>
</mask>
<g mask="url(#mask0_202_57)">
<path fill-rule="evenodd" clip-rule="evenodd" d="M24.3037 19.138H20.9759V31.0053H16.0436V19.138H13.6976V14.9479H16.0436V12.232C16.0436 10.2887 16.9661 7.25518 21.022 7.25518L24.6744 7.27001V11.34H22.0225C21.5894 11.34 20.9767 11.5554 20.9767 12.4802V14.9487H24.7368L24.3037 19.138ZM19.2176 -0.000488281C8.60376 -0.000488281 -0.000488281 8.6061 -0.000488281 19.2176C-0.000488281 29.8315 8.60376 38.435 19.2176 38.435C29.8315 38.435 38.4357 29.8315 38.4357 19.2176C38.4357 8.6061 29.8307 -0.000488281 19.2176 -0.000488281Z" fill="#6B350E"/>
</g>
<mask id="mask1_202_57" style="mask-type:luminance" maskUnits="userSpaceOnUse" x="53" y="0" width="39" height="39">
<path fill-rule="evenodd" clip-rule="evenodd" d="M53.436 0H91.8707V38.4347H53.436" fill="white"/>
</mask>
<g mask="url(#mask1_202_57)">
<path fill-rule="evenodd" clip-rule="evenodd" d="M82.3338 15.3433C82.3448 15.5509 82.3487 15.7592 82.3487 15.97C82.3487 22.3703 77.4764 29.7492 68.5686 29.7492C65.834 29.7492 63.2882 28.9477 61.1451 27.5742C61.5236 27.6187 61.9084 27.6413 62.2994 27.6413C64.5689 27.6413 66.6573 26.8671 68.3142 25.5685C66.1953 25.5287 64.4073 24.1278 63.7908 22.204C64.0858 22.2618 64.3894 22.2899 64.7016 22.2899C65.1441 22.2899 65.571 22.2329 65.9776 22.1213C63.7611 21.6765 62.0926 19.7176 62.0926 17.3732C62.0926 17.3521 62.0926 17.3318 62.0926 17.3107C62.745 17.6736 63.4919 17.8914 64.2864 17.9171C62.9862 17.047 62.1316 15.5665 62.1316 13.8854C62.1316 12.9981 62.3704 12.1654 62.7872 11.4505C65.1768 14.3802 68.745 16.3087 72.7704 16.51C72.6885 16.1565 72.6448 15.785 72.6448 15.4065C72.6448 12.7327 74.8128 10.5639 77.4881 10.5639C78.8812 10.5639 80.14 11.1524 81.0227 12.0928C82.1262 11.8766 83.1626 11.4723 84.0992 10.9174C83.7355 12.0491 82.9691 12.9981 81.9678 13.5967C82.9488 13.4796 83.8822 13.2189 84.7508 12.8342C84.1031 13.8074 83.2805 14.6604 82.3338 15.3433ZM72.6541 0C62.0395 0 53.436 8.60581 53.436 19.2181C53.436 29.8312 62.0395 38.4347 72.6541 38.4347C83.2672 38.4347 91.8707 29.8312 91.8707 19.2181C91.8707 8.60581 83.2664 0 72.6541 0Z" fill="#6B350E"/>
</g>
<path fill-rule="evenodd" clip-rule="evenodd" d="M134.021 15.011V11.9307V11.4702L133.56 11.4718L130.48 11.4827L130.492 15.0227L134.021 15.011Z" fill="#6B350E"/>
<path fill-rule="evenodd" clip-rule="evenodd" d="M125.993 23.1866C128.021 23.1866 129.671 21.5375 129.671 19.51C129.671 18.71 129.411 17.9686 128.973 17.3653C128.307 16.4397 127.219 15.8318 125.993 15.8318C124.766 15.8318 123.681 16.4397 123.012 17.3653C122.576 17.9686 122.316 18.71 122.316 19.51C122.316 21.5375 123.965 23.1866 125.993 23.1866Z" fill="#6B350E"/>
<mask id="mask2_202_57" style="mask-type:luminance" maskUnits="userSpaceOnUse" x="106" y="0" width="40" height="39">
<path fill-rule="evenodd" clip-rule="evenodd" d="M106.871 0H145.306V38.4347H106.871V0Z" fill="white"/>
</mask>
<g mask="url(#mask2_202_57)">
<path fill-rule="evenodd" clip-rule="evenodd" d="M136.44 17.3654V25.9197C136.44 28.1455 134.627 29.9561 132.402 29.9561H119.583C117.356 29.9561 115.546 28.1455 115.546 25.9197V17.3654V13.1011C115.546 10.8745 117.356 9.06392 119.583 9.06392H132.402C134.627 9.06392 136.44 10.8745 136.44 13.1011V17.3654ZM126.089 0C115.475 0 106.871 8.60269 106.871 19.2166C106.871 29.8304 115.475 38.4347 126.089 38.4347C136.701 38.4347 145.305 29.8304 145.305 19.2166C145.305 8.60269 136.7 0 126.089 0Z" fill="#6B350E"/>
</g>
<path fill-rule="evenodd" clip-rule="evenodd" d="M131.705 19.5099C131.705 22.6589 129.144 25.2226 125.994 25.2226C122.843 25.2226 120.282 22.6589 120.282 19.5099C120.282 18.7505 120.433 18.0286 120.701 17.3652H117.582V25.9195C117.582 27.0231 118.48 27.9206 119.584 27.9206H132.402C133.506 27.9206 134.403 27.0231 134.403 25.9195V17.3652H131.282C131.554 18.0286 131.705 18.7513 131.705 19.5099Z" fill="#6B350E"/>
</svg>
